<svg width="81" height="48" viewBox="0 0 81 48" fill="none" xmlns="http://www.w3.org/2000/svg">
<path d="M2.84981 30.1073H2.19727V29.0006H5.43336C6.76509 29.0006 7.68398 29.934 7.68398 31.3073C7.68398 32.6807 6.75177 33.6407 5.43336 33.6407H4.14159V36.0808H2.8365V30.1073H2.84981ZM5.19365 32.5207C5.9261 32.5207 6.35226 32.0407 6.35226 31.3073C6.35226 30.574 5.93942 30.1073 5.22029 30.1073H4.1549V32.5207H5.19365Z" fill="#216F48"/>
<path d="M8.88253 30.1073H8.22998V29.0006H11.3995C12.6913 29.0006 13.5968 29.8006 13.5968 31.134C13.5968 32.414 12.7179 32.9474 12.4249 33.0007V33.014C12.4249 33.014 12.638 33.1074 12.7712 33.374L13.4637 34.7474C13.5702 34.9607 13.7433 34.9741 13.9564 34.9741H14.0896V36.0808H13.3971C12.8644 36.0808 12.638 36.0007 12.4116 35.5474L11.506 33.7607C11.3595 33.4807 11.213 33.4274 10.8402 33.4274H10.1876V36.0674H8.88253V30.1073ZM11.213 32.3207C11.8656 32.3207 12.2651 31.9073 12.2651 31.2007C12.2651 30.5073 11.8789 30.1073 11.2397 30.1073H10.1876V32.3207H11.213Z" fill="#216F48"/>
<path d="M15.1818 30.1073H14.5293V29.0006H18.8041C19.2702 29.0006 19.4833 29.2139 19.4833 29.6806V30.7606H18.2981V30.334C18.2981 30.2006 18.2182 30.1206 18.085 30.1206H16.4869V31.974H18.7775V33.0807H16.4869V34.7741C16.4869 34.9074 16.5668 34.9874 16.7 34.9874H18.338C18.4712 34.9874 18.5511 34.9074 18.5511 34.7741V34.3474H19.7364V35.4274C19.7364 35.9074 19.5233 36.1074 19.0572 36.1074H15.8477C15.3683 36.1074 15.1685 35.9074 15.1685 35.4274V30.1073H15.1818Z" fill="#216F48"/>
<path d="M21.0148 34.1874C21.0148 34.1874 21.7473 35.0274 22.7327 35.0274C23.2654 35.0274 23.7449 34.734 23.7449 34.1874C23.7449 32.974 20.4155 33.0807 20.4155 30.8673C20.4155 29.7206 21.4143 28.8672 22.7727 28.8672C23.5984 28.8672 24.8768 29.2539 24.8768 30.2673V30.9206H23.7049V30.6006C23.7049 30.2673 23.2388 30.0539 22.7727 30.0539C22.1734 30.0539 21.7339 30.3606 21.7339 30.814C21.7339 32.0273 25.0633 31.7873 25.0633 34.1074C25.0633 35.2407 24.1976 36.1874 22.7061 36.1874C21.1347 36.1874 20.269 35.094 20.269 35.094L21.0148 34.1874Z" fill="#216F48"/>
<path d="M26.4079 30.1073H25.7554V29.0006H28.8183C30.0968 29.0006 31.0157 29.654 31.0157 30.8273C31.0157 31.614 30.5895 32.1207 30.1634 32.3473V32.3607C30.9358 32.5873 31.2954 33.3074 31.2954 34.0274C31.2954 35.4407 30.1634 36.0808 28.8583 36.0808H27.0871C26.621 36.0808 26.4079 35.8807 26.4079 35.4007V30.1073ZM28.8317 31.894C29.3777 31.894 29.684 31.494 29.684 30.9873C29.684 30.4806 29.391 30.1073 28.805 30.1073H27.713V31.894H28.8317ZM27.9261 34.9874H28.9382C29.5774 34.9874 29.937 34.5607 29.937 33.9607C29.937 33.374 29.5641 32.9474 28.9382 32.9474H27.6997V34.7741C27.713 34.9074 27.7929 34.9874 27.9261 34.9874Z" fill="#216F48"/>
<path d="M32.0811 34.9874H32.7869V30.1206H32.0811V29.0139H34.7312V30.1206H34.0254V34.9874H34.7312V36.0941H32.0811V34.9874Z" fill="#216F48"/>
<path d="M37.7145 30.1073H36.6225C36.4894 30.1073 36.4094 30.1873 36.4094 30.3206V30.7473H35.2642V29.6273C35.2642 29.1606 35.424 28.9872 35.9034 28.9872H40.8441C41.3235 28.9872 41.4833 29.1606 41.4833 29.6273V30.7473H40.338V30.3206C40.338 30.1873 40.2581 30.1073 40.125 30.1073H39.0196V36.0941H37.7145V30.1073Z" fill="#216F48"/>
<path d="M42.6018 30.1073H41.9492V29.0006H46.2241C46.6902 29.0006 46.9032 29.2139 46.9032 29.6806V30.7606H45.718V30.334C45.718 30.2006 45.6381 30.1206 45.5049 30.1206H43.9069V31.974H46.2107V33.0807H43.9202V34.7741C43.9202 34.9074 44.0001 34.9874 44.1333 34.9874H45.7713C45.9045 34.9874 45.9844 34.9074 45.9844 34.7741V34.3474H47.1696V35.4274C47.1696 35.9074 46.9565 36.1074 46.4904 36.1074H43.2809C42.8015 36.1074 42.6018 35.9074 42.6018 35.4274V30.1073Z" fill="#216F48"/>
<path d="M48.3684 30.1073H47.7158V29.0006H50.8853C52.1771 29.0006 53.0827 29.8006 53.0827 31.134C53.0827 32.414 52.2037 32.9474 51.9108 33.0007V33.014C51.9108 33.014 52.1238 33.1074 52.257 33.374L52.9495 34.7474C53.056 34.9607 53.2292 34.9741 53.4422 34.9741H53.5754V36.0808H52.8829C52.3502 36.0808 52.1238 36.0007 51.8974 35.5474L50.9919 33.7607C50.8454 33.4807 50.6989 33.4274 50.326 33.4274H49.6735V36.0674H48.3684V30.1073ZM50.7122 32.3207C51.3648 32.3207 51.7643 31.9073 51.7643 31.2007C51.7643 30.5073 51.3781 30.1073 50.7388 30.1073H49.6735V32.3207H50.7122Z" fill="#216F48"/>
<path d="M54.0679 34.9874H54.7737V30.1206H54.0679V29.0139H56.718V30.1206H56.0122V34.9874H56.718V36.0941H54.0679V34.9874Z" fill="#216F48"/>
<path d="M57.2109 34.9874H57.3707C57.5439 34.9874 57.6238 34.9474 57.677 34.774L59.7812 29.0139H61.1529L63.2437 34.774C63.2969 34.9474 63.3768 34.9874 63.55 34.9874H63.7098V36.0941H62.9374C62.4446 36.0941 62.2582 35.9607 62.0984 35.5207L61.6589 34.2674H59.2618L58.8223 35.5074C58.6625 35.9607 58.4894 36.0807 57.9967 36.0807H57.2109V34.9874ZM61.3526 33.1873L60.74 31.414C60.6068 31.0273 60.4604 30.3606 60.4604 30.3606H60.447C60.447 30.3606 60.3005 31.0273 60.1674 31.414L59.5548 33.1873H61.3526Z" fill="#216F48"/>
<path d="M64.1494 34.9874H64.5756C64.7087 34.9874 64.7886 34.9074 64.7886 34.774V29.0139H65.9606L68.6373 32.934C68.917 33.3473 69.2233 33.934 69.2233 33.934H69.2499C69.2499 33.934 69.1833 33.3473 69.1833 32.934V29.6939C69.1833 29.2273 69.3831 29.0139 69.8625 29.0139H71.141V30.1206H70.7148C70.5817 30.1206 70.5018 30.2006 70.5018 30.3339V36.0941H69.3298L66.6397 32.174C66.3601 31.774 66.0538 31.174 66.0538 31.174H66.0405C66.0405 31.174 66.1071 31.7606 66.1071 32.174V35.414C66.1071 35.8941 65.9073 36.0941 65.4279 36.0941H64.1494V34.9874Z" fill="#216F48"/>
<path d="M71.6069 34.9874H71.7667C71.9399 34.9874 72.0198 34.9474 72.073 34.774L74.1772 29.0139H75.5488L77.6397 34.774C77.6929 34.9474 77.7728 34.9874 77.946 34.9874H78.1058V36.0941H77.3334C76.8406 36.0941 76.6542 35.9607 76.4944 35.5207L76.0549 34.2807H73.6578L73.2183 35.5207C73.0585 35.9741 72.8854 36.0941 72.3926 36.0941H71.6069V34.9874ZM75.7486 33.1873L75.136 31.414C75.0028 31.0273 74.8563 30.3606 74.8563 30.3606H74.843C74.843 30.3606 74.6965 31.0273 74.5634 31.414L73.9508 33.1873H75.7486Z" fill="#216F48"/>
<path d="M1.65137 24.2805H2.14411V20.8804H1.65137V20.1071H3.50247V20.8804H3.00973V24.2805H3.50247V25.0538H1.65137V24.2805Z" fill="#216F48"/>
<path d="M5.55353 21.4271C6.3792 21.4271 6.64554 21.9337 6.64554 21.9337H6.65886C6.65886 21.9337 6.65886 21.8937 6.65886 21.8404C6.65886 21.6804 6.7654 21.5071 7.04506 21.5071H7.87073V22.2537H7.60439C7.51117 22.2537 7.4579 22.3071 7.4579 22.3871V24.8271C7.4579 26.0405 6.51237 26.5072 5.59348 26.5072C5.15401 26.5072 4.67459 26.3872 4.34165 26.2005L4.608 25.5071C4.608 25.5071 5.04747 25.7471 5.59348 25.7471C6.12617 25.7471 6.59227 25.5205 6.59227 24.8805V24.7071C6.59227 24.6271 6.60559 24.5205 6.60559 24.5205H6.59227C6.3792 24.8138 6.0729 24.9738 5.6068 24.9738C4.59468 24.9738 4.00872 24.1471 4.00872 23.1738C3.98209 22.2137 4.54141 21.4271 5.55353 21.4271ZM6.59227 23.2004C6.59227 22.3871 6.19276 22.1737 5.71333 22.1737C5.18064 22.1737 4.88766 22.5604 4.88766 23.1604C4.88766 23.7738 5.19396 24.2405 5.7666 24.2405C6.19276 24.2405 6.59227 24.0004 6.59227 23.2004Z" fill="#216F48"/>
<path d="M8.58973 22.4138C8.58973 22.3071 8.53646 22.2671 8.44324 22.2671H8.16357V21.5204H8.97593C9.28222 21.5204 9.44203 21.6537 9.44203 21.9471V22.1604C9.44203 22.2938 9.42872 22.3871 9.42872 22.3871H9.44203C9.60184 21.8804 10.028 21.4804 10.574 21.4804C10.6539 21.4804 10.7338 21.4937 10.7338 21.4937V22.3604C10.7338 22.3604 10.6406 22.3471 10.5207 22.3471C10.1478 22.3471 9.70838 22.5604 9.54857 23.0938C9.4953 23.2671 9.46867 23.4671 9.46867 23.6671V25.0671H8.58973V22.4138Z" fill="#216F48"/>
<path d="M12.7715 21.4271C13.7836 21.4271 14.3429 22.1737 14.3429 23.1071C14.3429 23.2138 14.3163 23.4404 14.3163 23.4404H11.8659C11.9325 24.0671 12.3986 24.3871 12.9313 24.3871C13.5039 24.3871 13.9301 23.9871 13.9301 23.9871L14.303 24.6005C14.303 24.6005 13.7569 25.1338 12.878 25.1338C11.7061 25.1338 10.9736 24.2805 10.9736 23.2804C10.9736 22.1871 11.7061 21.4271 12.7715 21.4271ZM13.4373 22.8271C13.424 22.4004 13.131 22.1071 12.7715 22.1071C12.3187 22.1071 11.9991 22.3738 11.9058 22.8271H13.4373Z" fill="#216F48"/>
<path d="M14.6359 25.7471C14.8889 25.7471 15.3417 25.6671 15.3417 25.0938V22.4137C15.3417 22.3071 15.2884 22.2671 15.1952 22.2671H14.9155V21.5204H15.7545C16.0875 21.5204 16.2206 21.6671 16.2206 21.9871V25.1605C16.2206 26.3472 15.2218 26.4938 14.7424 26.4938C14.5826 26.4938 14.4761 26.4672 14.4761 26.4672V25.7338C14.4894 25.7338 14.5427 25.7471 14.6359 25.7471ZM15.3816 20.1204H16.1541V20.9337H15.3816V20.1204Z" fill="#216F48"/>
<path d="M19.0704 22.8271H19.1769V22.8004C19.1769 22.2937 18.9772 22.1071 18.5244 22.1071C18.3646 22.1071 18.0583 22.1471 18.0583 22.3471V22.5338H17.2326V22.1604C17.2326 21.4937 18.1648 21.4271 18.5377 21.4271C19.7229 21.4271 20.0692 22.0404 20.0692 22.8404V24.1605C20.0692 24.2538 20.1225 24.3071 20.2157 24.3071H20.4953V25.0538H19.7096C19.3767 25.0538 19.2568 24.8671 19.2568 24.6671C19.2568 24.5738 19.2701 24.5205 19.2701 24.5205H19.2568C19.2568 24.5205 18.9905 25.1471 18.1915 25.1471C17.5655 25.1471 16.9796 24.7471 16.9796 24.0404C16.9663 22.9204 18.4977 22.8271 19.0704 22.8271ZM18.3912 24.4538C18.8573 24.4538 19.2036 23.9471 19.2036 23.5204V23.4404H19.0438C18.591 23.4404 17.8585 23.5071 17.8585 24.0004C17.8585 24.2271 18.0316 24.4538 18.3912 24.4538Z" fill="#216F48"/>
<path d="M50.9385 7.28015C50.9385 7.22681 50.9118 7.16014 50.8586 7.12014C46.6237 4.08008 40.9772 2.21338 34.7713 2.21338C34.0921 2.21338 33.4263 2.24005 32.7604 2.28005C32.6938 2.28005 32.6272 2.30671 32.5873 2.34671C30.9226 3.72008 29.5243 5.29344 28.419 7.00014C28.3124 7.16014 28.4989 7.33348 28.7253 7.29348C30.6563 6.89347 32.6805 6.68013 34.758 6.68013C40.7907 6.68013 46.3041 8.44017 50.4857 11.3336" fill="#36A268"/>
<path d="M50.9654 13.1736C46.7438 10.1469 41.0973 8.29352 34.918 8.29352C32.2812 8.29352 29.7376 8.64019 27.3672 9.25354C27.2606 9.2802 27.1674 9.34687 27.1408 9.44021C26.6613 10.5869 26.3151 11.7736 26.1153 13.0003C26.0754 13.2136 26.3417 13.3736 26.5948 13.2936C29.1783 12.5336 31.9882 12.1203 34.918 12.1203C40.8842 12.1203 46.3176 13.8403 50.4859 16.667" fill="#278756"/>
<path d="M25.3428 15.0936C25.3428 15.1069 25.3428 15.1069 25.3428 15.0936C25.3428 16.5336 25.5292 17.9337 25.9021 19.2804C25.9687 19.507 26.1951 19.6404 26.3948 19.5604C28.7387 18.6003 31.4155 18.0403 34.252 18.0403C40.631 18.0403 46.1843 20.8004 49.0475 24.8805C49.1141 24.9871 49.234 25.0405 49.3538 25.0405H50.5124V18.667C46.2775 15.5869 40.5911 13.7069 34.3453 13.7069C31.1624 13.7202 28.1128 14.2136 25.3428 15.0936Z" fill="#216F48"/>
<path d="M50.0464 7.28015C50.0464 7.22681 50.073 7.16014 50.1263 7.12014C54.3612 4.08008 60.0077 2.21338 66.2136 2.21338C66.8927 2.21338 67.5586 2.24005 68.2245 2.28005C68.2911 2.28005 68.3576 2.30671 68.3976 2.34671C70.0623 3.72008 71.4606 5.29344 72.5659 7.00014C72.6724 7.16014 72.486 7.33348 72.2596 7.29348C70.3286 6.89347 68.3044 6.68013 66.2269 6.68013C60.1942 6.68013 54.6808 8.44017 50.4992 11.3336" fill="#36A268"/>
<path d="M50.0195 13.1736C54.2411 10.1469 59.8876 8.29352 66.0668 8.29352C68.7037 8.29352 71.2473 8.64019 73.6177 9.25354C73.7243 9.2802 73.8175 9.34687 73.8441 9.44021C74.3236 10.5869 74.6698 11.7736 74.8696 13.0003C74.9095 13.2136 74.6432 13.3736 74.3901 13.2936C71.8066 12.5336 68.9966 12.1203 66.0668 12.1203C60.1007 12.1203 54.6673 13.8403 50.499 16.667" fill="#278756"/>
<path d="M75.6423 15.0936C75.6423 15.107 75.6423 15.107 75.6423 15.0936C75.6423 16.5337 75.4559 17.9337 75.083 19.2804C75.0164 19.5204 74.79 19.6404 74.5769 19.5604C72.2331 18.6004 69.5563 18.0537 66.733 18.0537C60.3541 18.0537 54.8008 20.8138 51.9376 24.8938C51.871 25.0005 51.7511 25.0538 51.6313 25.0538H50.4727V18.6804C54.7075 15.6003 60.394 13.7203 66.6398 13.7203C69.8227 13.7203 72.859 14.2136 75.6423 15.0936Z" fill="#216F48"/>
<path d="M30.4169 39.6808H29.6978V38.4674H33.2401C34.6917 38.4674 35.7038 39.4808 35.7038 40.9875C35.7038 42.4942 34.6917 43.5475 33.2401 43.5475H31.8285V46.2276H30.4036V39.6808H30.4169ZM32.9871 42.3208C33.7995 42.3208 34.2523 41.8008 34.2523 40.9875C34.2523 40.1874 33.7995 39.6808 33.0138 39.6808H31.8418V42.3208H32.9871Z" fill="#216F48"/>
<path d="M37.0222 39.6808H36.3164V38.4674H41.0041C41.5235 38.4674 41.7499 38.6941 41.7499 39.2141V40.4008H40.4448V39.9341C40.4448 39.7874 40.3515 39.6941 40.205 39.6941H38.4605V41.7208H40.9775V42.9342H38.4605V44.7875C38.4605 44.9342 38.5537 45.0275 38.7002 45.0275H40.4847C40.6312 45.0275 40.7244 44.9342 40.7244 44.7875V44.3209H42.0295V45.5075C42.0295 46.0276 41.8031 46.2542 41.2837 46.2542H37.768C37.2486 46.2542 37.0222 46.0409 37.0222 45.5075V39.6808Z" fill="#216F48"/>
<path d="M42.6157 45.0142H43.0818C43.2283 45.0142 43.3215 44.9209 43.3215 44.7742V38.4674H44.6133L47.5564 42.7609C47.8627 43.2142 48.1957 43.8542 48.1957 43.8542H48.2223C48.2223 43.8542 48.1424 43.2142 48.1424 42.7609V39.2008C48.1424 38.6808 48.3555 38.4541 48.8882 38.4541H50.2865V39.6675H49.8071C49.6606 39.6675 49.5673 39.7608 49.5673 39.9075V46.2143H48.2889L45.3458 41.9342C45.0395 41.4942 44.7065 40.8408 44.7065 40.8408H44.6799C44.6799 40.8408 44.7598 41.4808 44.7598 41.9342V45.4809C44.7598 46.0009 44.5467 46.2276 44.014 46.2276H42.6157V45.0142Z" fill="#216F48"/>
<path d="M51.738 39.9208C51.738 39.7741 51.6448 39.6808 51.4983 39.6808H51.0322V38.4674H52.4305C52.9499 38.4674 53.1763 38.6941 53.1763 39.2141V41.7608H56.5988V39.2008C56.5988 38.6808 56.8252 38.4541 57.3446 38.4541H58.7429V39.6675H58.2768C58.1303 39.6675 58.0371 39.7608 58.0371 39.9075V46.2143H56.6122V42.9609H53.1896V46.2143H51.7647V39.9208H51.738Z" fill="#216F48"/>
<path d="M59.2086 45.0142H59.3818C59.5682 45.0142 59.6481 44.9742 59.7147 44.7742L62.0186 38.4674H63.5234L65.814 44.7742C65.8806 44.9742 65.9605 45.0142 66.1469 45.0142H66.3201V46.2276H65.4677C64.9217 46.2276 64.722 46.0809 64.5489 45.5875L64.0694 44.2275H61.4459L60.9665 45.5875C60.7934 46.0809 60.6069 46.2276 60.0609 46.2276H59.1953V45.0142H59.2086ZM63.7498 43.0542L63.084 41.1075C62.9375 40.6808 62.7777 39.9474 62.7777 39.9474H62.751C62.751 39.9474 62.5912 40.6808 62.4447 41.1075L61.7789 43.0542H63.7498Z" fill="#216F48"/>
<path d="M22.3994 41.1341C23.1186 41.1341 23.3583 41.6142 23.3583 41.6142H23.3716C23.3716 41.6142 23.3583 41.5208 23.3583 41.4008V40.6141C23.3583 40.5208 23.305 40.4808 23.2251 40.4808H22.9721V39.9741H23.5713C23.851 39.9741 23.9709 40.0941 23.9709 40.3741V43.6942C23.9709 43.7875 24.0241 43.8275 24.104 43.8275H24.3571V44.3342H23.7844C23.5181 44.3342 23.3982 44.2142 23.3982 44.0009C23.3982 43.9075 23.3982 43.8409 23.3982 43.8409H23.3849C23.3849 43.8409 23.1319 44.4142 22.3595 44.4142C21.5072 44.4142 20.9878 43.7475 20.9878 42.7742C20.9878 41.7742 21.5738 41.1341 22.3994 41.1341ZM23.3849 42.7608C23.3849 42.2008 23.0919 41.6542 22.4926 41.6542C21.9999 41.6542 21.6004 42.0675 21.6004 42.7742C21.6004 43.4542 21.96 43.8942 22.4793 43.8942C22.9454 43.8942 23.3849 43.5609 23.3849 42.7608Z" fill="#216F48"/>
<path d="M26.6075 42.3875H26.7407V42.3608C26.7407 41.8142 26.5409 41.6142 26.0482 41.6142C25.9017 41.6142 25.5288 41.6542 25.5288 41.8542V42.0275H24.9695V41.7208C24.9695 41.2142 25.7419 41.1342 26.0482 41.1342C27.0603 41.1342 27.3266 41.6675 27.3266 42.3608V43.6942C27.3266 43.7875 27.3799 43.8275 27.4598 43.8275H27.7128V44.3342H27.1535C26.8738 44.3342 26.7673 44.2009 26.7673 43.9742C26.7673 43.8675 26.7806 43.7875 26.7806 43.7875H26.7673C26.7673 43.7875 26.5143 44.4009 25.7685 44.4009C25.2358 44.4009 24.7031 44.0675 24.7031 43.4542C24.7298 42.4542 26.0881 42.3875 26.6075 42.3875ZM25.915 43.9342C26.4211 43.9342 26.754 43.4009 26.754 42.9342V42.8275H26.5942C26.1414 42.8275 25.329 42.8542 25.329 43.4275C25.329 43.6809 25.5288 43.9342 25.915 43.9342Z" fill="#216F48"/>
</svg>
